<svg width="288" height="250" viewBox="0 0 288 250" fill="none" xmlns="http://www.w3.org/2000/svg">
<rect width="288" height="250" rx="24" fill="url(#paint0_linear_4021_208)"/>
<path d="M44.695 46.171C43.591 46.171 42.61 46.042 41.752 45.784C40.894 45.52 40.165 45.115 39.565 44.569C38.971 44.017 38.521 43.312 38.215 42.454C37.909 41.596 37.756 40.567 37.756 39.367C37.756 37.843 38.032 36.574 38.584 35.56C39.136 34.54 39.94 33.778 40.996 33.274C42.052 32.764 43.333 32.509 44.839 32.509C45.349 32.509 45.841 32.536 46.315 32.59C46.789 32.638 47.251 32.716 47.701 32.824V35.236C47.281 35.134 46.852 35.056 46.414 35.002C45.982 34.948 45.535 34.921 45.073 34.921C44.113 34.921 43.318 35.071 42.688 35.371C42.064 35.665 41.596 36.136 41.284 36.784C40.972 37.432 40.816 38.281 40.816 39.331C40.816 40.417 40.969 41.284 41.275 41.932C41.587 42.574 42.049 43.039 42.661 43.327C43.279 43.615 44.05 43.759 44.974 43.759C45.43 43.759 45.883 43.723 46.333 43.651C46.783 43.573 47.239 43.468 47.701 43.336V45.739C47.275 45.871 46.801 45.976 46.279 46.054C45.763 46.132 45.235 46.171 44.695 46.171ZM49.2507 46V36.154H52.1217V46H49.2507ZM50.6817 34.723C50.0817 34.723 49.6347 34.591 49.3407 34.327C49.0527 34.063 48.9087 33.697 48.9087 33.229C48.9087 32.749 49.0527 32.38 49.3407 32.122C49.6347 31.858 50.0817 31.726 50.6817 31.726C51.2877 31.726 51.7347 31.858 52.0227 32.122C52.3107 32.38 52.4547 32.749 52.4547 33.229C52.4547 33.697 52.3107 34.063 52.0227 34.327C51.7347 34.591 51.2877 34.723 50.6817 34.723ZM58.6435 46.18C57.4555 46.18 56.5405 45.886 55.8985 45.298C55.2625 44.704 54.9445 43.765 54.9445 42.481V36.154L55.4665 32.68H57.8065V42.031C57.8065 42.709 57.9325 43.177 58.1845 43.435C58.4425 43.693 58.8565 43.822 59.4265 43.822C59.5825 43.822 59.7415 43.813 59.9035 43.795C60.0715 43.771 60.2575 43.741 60.4615 43.705V45.973C60.2035 46.027 59.9125 46.075 59.5885 46.117C59.2705 46.159 58.9555 46.18 58.6435 46.18ZM53.3425 38.413V36.154H60.3985V38.413H53.3425ZM61.9245 46V36.154H64.7955V46H61.9245ZM63.3555 34.723C62.7555 34.723 62.3085 34.591 62.0145 34.327C61.7265 34.063 61.5825 33.697 61.5825 33.229C61.5825 32.749 61.7265 32.38 62.0145 32.122C62.3085 31.858 62.7555 31.726 63.3555 31.726C63.9615 31.726 64.4085 31.858 64.6965 32.122C64.9845 32.38 65.1285 32.749 65.1285 33.229C65.1285 33.697 64.9845 34.063 64.6965 34.327C64.4085 34.591 63.9615 34.723 63.3555 34.723ZM70.4713 50.14C69.9493 50.14 69.4033 50.107 68.8333 50.041C68.2633 49.981 67.7113 49.879 67.1773 49.735V47.494C67.7293 47.644 68.2663 47.755 68.7883 47.827C69.3103 47.899 69.7963 47.935 70.2463 47.935C71.2063 47.935 71.9023 47.755 72.3343 47.395C72.7723 47.035 72.9913 46.435 72.9913 45.595V44.947H72.8563C72.5743 45.295 72.2173 45.568 71.7853 45.766C71.3593 45.964 70.8673 46.063 70.3093 46.063C69.6373 46.063 69.0103 45.895 68.4283 45.559C67.8463 45.217 67.3753 44.695 67.0153 43.993C66.6613 43.285 66.4843 42.379 66.4843 41.275C66.4843 39.577 66.9463 38.275 67.8703 37.369C68.7943 36.457 70.1953 36.001 72.0733 36.001C72.4933 36.001 72.9253 36.022 73.3693 36.064C73.8193 36.106 74.2573 36.169 74.6833 36.253C75.1093 36.331 75.5023 36.43 75.8623 36.55V45.073C75.8623 46.855 75.4183 48.145 74.5303 48.943C73.6423 49.741 72.2893 50.14 70.4713 50.14ZM71.3983 43.732C71.6863 43.732 71.9713 43.684 72.2533 43.588C72.5353 43.486 72.7813 43.336 72.9913 43.138V38.296C72.8353 38.26 72.6553 38.23 72.4513 38.206C72.2533 38.182 72.0433 38.17 71.8213 38.17C71.0293 38.17 70.4233 38.392 70.0033 38.836C69.5833 39.274 69.3733 40.006 69.3733 41.032C69.3733 41.728 69.4573 42.274 69.6253 42.67C69.7933 43.06 70.0273 43.336 70.3273 43.498C70.6333 43.654 70.9903 43.732 71.3983 43.732ZM78.0085 46V36.154H80.3575L80.5735 37.423H80.7175C80.9935 36.937 81.3595 36.583 81.8155 36.361C82.2715 36.133 82.7725 36.019 83.3185 36.019C83.4685 36.019 83.6125 36.025 83.7505 36.037C83.8885 36.049 84.0115 36.067 84.1195 36.091V38.683C83.9695 38.653 83.8075 38.635 83.6335 38.629C83.4655 38.617 83.3035 38.611 83.1475 38.611C82.8655 38.611 82.5805 38.647 82.2925 38.719C82.0045 38.785 81.7375 38.89 81.4915 39.034C81.2455 39.172 81.0385 39.343 80.8705 39.547V46H78.0085ZM89.5625 46.189C88.5785 46.189 87.7265 46.003 87.0065 45.631C86.2925 45.253 85.7405 44.689 85.3505 43.939C84.9605 43.183 84.7655 42.238 84.7655 41.104C84.7655 39.958 84.9545 39.007 85.3325 38.251C85.7165 37.495 86.2655 36.931 86.9795 36.559C87.6995 36.187 88.5605 36.001 89.5625 36.001C90.5645 36.001 91.4225 36.19 92.1365 36.568C92.8565 36.94 93.4055 37.504 93.7835 38.26C94.1675 39.01 94.3595 39.952 94.3595 41.086C94.3595 42.226 94.1645 43.174 93.7745 43.93C93.3845 44.686 92.8295 45.253 92.1095 45.631C91.3955 46.003 90.5465 46.189 89.5625 46.189ZM89.5625 44.011C89.9645 44.011 90.3065 43.924 90.5885 43.75C90.8765 43.576 91.0955 43.279 91.2455 42.859C91.3955 42.433 91.4705 41.851 91.4705 41.113C91.4705 40.357 91.3955 39.766 91.2455 39.34C91.0955 38.914 90.8765 38.614 90.5885 38.44C90.3065 38.26 89.9645 38.17 89.5625 38.17C89.1605 38.17 88.8155 38.257 88.5275 38.431C88.2455 38.605 88.0295 38.905 87.8795 39.331C87.7295 39.751 87.6545 40.333 87.6545 41.077C87.6545 41.833 87.7295 42.424 87.8795 42.85C88.0295 43.276 88.2455 43.576 88.5275 43.75C88.8155 43.924 89.1605 44.011 89.5625 44.011ZM99.3557 46.171C98.7017 46.171 98.1197 46.045 97.6097 45.793C97.0997 45.535 96.6977 45.124 96.4037 44.56C96.1097 43.996 95.9627 43.249 95.9627 42.319V36.154H98.8337V42.121C98.8337 42.715 98.9567 43.126 99.2027 43.354C99.4547 43.582 99.7817 43.696 100.184 43.696C100.382 43.696 100.589 43.669 100.805 43.615C101.027 43.555 101.237 43.465 101.435 43.345C101.633 43.225 101.807 43.075 101.957 42.895V36.154H104.819V46H102.461L102.263 45.01H102.137C101.765 45.388 101.342 45.676 100.868 45.874C100.394 46.072 99.8897 46.171 99.3557 46.171ZM106.96 49.96V36.154H109.372L109.543 37.207H109.678C109.96 36.841 110.32 36.55 110.758 36.334C111.202 36.112 111.715 36.001 112.297 36.001C113.023 36.001 113.692 36.166 114.304 36.496C114.916 36.826 115.405 37.351 115.771 38.071C116.143 38.785 116.329 39.724 116.329 40.888C116.329 42.034 116.125 43 115.717 43.786C115.315 44.572 114.715 45.169 113.917 45.577C113.125 45.979 112.141 46.18 110.965 46.18C110.767 46.18 110.569 46.171 110.371 46.153C110.179 46.141 109.996 46.126 109.822 46.108V49.96H106.96ZM110.965 44.002C111.793 44.002 112.414 43.78 112.828 43.336C113.242 42.892 113.449 42.151 113.449 41.113C113.449 40.393 113.365 39.832 113.197 39.43C113.029 39.028 112.795 38.746 112.495 38.584C112.195 38.422 111.847 38.341 111.451 38.341C111.157 38.341 110.863 38.395 110.569 38.503C110.281 38.605 110.032 38.773 109.822 39.007V43.885C109.984 43.915 110.167 43.942 110.371 43.966C110.575 43.99 110.773 44.002 110.965 44.002Z" fill="#3D2E87"/>
<circle cx="228" cy="39.5" r="3" fill="#772BC7"/>
<circle cx="238" cy="39.5" r="3" fill="#772BC7"/>
<circle cx="248" cy="39.5" r="3" fill="#772BC7"/>
<path d="M43.944 105.266C42.992 105.266 42.0167 105.191 41.018 105.042C40.0287 104.902 39.1093 104.701 38.26 104.44V100.744C38.848 100.921 39.4733 101.075 40.136 101.206C40.7987 101.337 41.452 101.439 42.096 101.514C42.74 101.579 43.3327 101.612 43.874 101.612C44.854 101.612 45.6333 101.519 46.212 101.332C46.7907 101.136 47.206 100.861 47.458 100.506C47.7193 100.142 47.85 99.7033 47.85 99.19C47.85 98.546 47.6353 98.042 47.206 97.678C46.786 97.314 45.9973 96.9827 44.84 96.684L43.272 96.278C41.4613 95.8207 40.0893 95.1113 39.156 94.15C38.232 93.1793 37.77 91.9007 37.77 90.314C37.77 88.3353 38.4933 86.7907 39.94 85.68C41.3867 84.5693 43.5847 84.014 46.534 84.014C47.4113 84.014 48.2607 84.0653 49.082 84.168C49.9127 84.2613 50.6547 84.3967 51.308 84.574V88.27C50.6453 88.074 49.9127 87.9247 49.11 87.822C48.3167 87.7193 47.556 87.668 46.828 87.668C45.68 87.668 44.7747 87.7707 44.112 87.976C43.4587 88.172 42.992 88.452 42.712 88.816C42.432 89.18 42.292 89.6 42.292 90.076C42.292 90.6827 42.4787 91.1587 42.852 91.504C43.2253 91.8493 43.9253 92.162 44.952 92.442L46.506 92.848C47.85 93.1747 48.956 93.6087 49.824 94.15C50.692 94.682 51.3313 95.34 51.742 96.124C52.162 96.8987 52.372 97.818 52.372 98.882C52.372 100.207 52.0407 101.351 51.378 102.312C50.7153 103.264 49.754 103.997 48.494 104.51C47.2433 105.014 45.7267 105.266 43.944 105.266ZM42.978 108.36V104.216L47.178 104.174V108.36H42.978ZM42.978 84.868V80.92H47.178V84.868H42.978ZM62.3435 105L69.3575 86.702L70.8555 88.032H60.3415V84.28H73.6975V86.716L67.0055 105H62.3435ZM74.6589 109.788C75.1162 108.789 75.4709 107.865 75.7229 107.016C75.9842 106.167 76.1149 105.308 76.1149 104.44L77.0809 105.238H76.5209C75.6529 105.238 74.9529 104.995 74.4209 104.51C73.8889 104.015 73.6229 103.353 73.6229 102.522C73.6229 101.673 73.8796 101.01 74.3929 100.534C74.9062 100.058 75.5922 99.82 76.4509 99.82C77.4122 99.82 78.1402 100.114 78.6349 100.702C79.1389 101.29 79.3909 102.172 79.3909 103.348C79.3909 104.477 79.1902 105.607 78.7889 106.736C78.3969 107.875 77.8696 108.892 77.2069 109.788H74.6589ZM80.6391 100.73V98.252L87.8631 84.28H92.2311L85.0911 98.266L84.5871 97.23H97.4811V100.73H80.6391ZM90.7191 105V97.23L91.1811 91.28H94.8071V105H90.7191ZM98.2384 105V102.564L103.964 95.424C104.552 94.6773 105.024 94.0147 105.378 93.436C105.733 92.8573 105.985 92.33 106.134 91.854C106.293 91.3687 106.372 90.8973 106.372 90.44C106.372 89.4973 106.074 88.802 105.476 88.354C104.888 87.8967 103.922 87.668 102.578 87.668C101.757 87.668 100.945 87.7427 100.142 87.892C99.3397 88.032 98.6211 88.228 97.9864 88.48V84.784C98.3971 84.6347 98.8871 84.504 99.4564 84.392C100.035 84.2707 100.637 84.1773 101.262 84.112C101.888 84.0467 102.49 84.014 103.068 84.014C105.626 84.014 107.562 84.4947 108.878 85.456C110.194 86.408 110.852 87.9247 110.852 90.006C110.852 90.706 110.759 91.406 110.572 92.106C110.395 92.7967 110.087 93.5247 109.648 94.29C109.219 95.046 108.636 95.872 107.898 96.768L103.278 102.396L103.152 101.248H111.846V105H98.2384ZM121.807 105.266C120.137 105.266 118.699 104.897 117.495 104.16C116.291 103.423 115.367 102.27 114.723 100.702C114.079 99.134 113.757 97.1133 113.757 94.64C113.757 92.1667 114.079 90.146 114.723 88.578C115.367 87.01 116.287 85.8573 117.481 85.12C118.685 84.3827 120.127 84.014 121.807 84.014C123.478 84.014 124.915 84.3827 126.119 85.12C127.323 85.8573 128.247 87.01 128.891 88.578C129.535 90.146 129.857 92.1667 129.857 94.64C129.857 97.1133 129.531 99.134 128.877 100.702C128.233 102.27 127.309 103.423 126.105 104.16C124.901 104.897 123.469 105.266 121.807 105.266ZM121.807 101.542C122.563 101.542 123.207 101.337 123.739 100.926C124.271 100.506 124.677 99.7967 124.957 98.798C125.247 97.7993 125.391 96.418 125.391 94.654C125.391 92.89 125.247 91.504 124.957 90.496C124.677 89.488 124.271 88.7787 123.739 88.368C123.207 87.948 122.563 87.738 121.807 87.738C121.061 87.738 120.417 87.948 119.875 88.368C119.334 88.7787 118.923 89.4833 118.643 90.482C118.363 91.4807 118.223 92.862 118.223 94.626C118.223 96.39 118.363 97.776 118.643 98.784C118.923 99.792 119.329 100.506 119.861 100.926C120.403 101.337 121.051 101.542 121.807 101.542ZM134.162 105.238C133.284 105.238 132.58 104.995 132.048 104.51C131.525 104.025 131.264 103.367 131.264 102.536C131.264 101.696 131.52 101.033 132.034 100.548C132.556 100.063 133.266 99.82 134.162 99.82C135.058 99.82 135.762 100.067 136.276 100.562C136.798 101.057 137.06 101.715 137.06 102.536C137.06 103.348 136.794 104.001 136.262 104.496C135.739 104.991 135.039 105.238 134.162 105.238ZM146.526 105.266C144.855 105.266 143.418 104.897 142.214 104.16C141.01 103.423 140.086 102.27 139.442 100.702C138.798 99.134 138.476 97.1133 138.476 94.64C138.476 92.1667 138.798 90.146 139.442 88.578C140.086 87.01 141.005 85.8573 142.2 85.12C143.404 84.3827 144.846 84.014 146.526 84.014C148.197 84.014 149.634 84.3827 150.838 85.12C152.042 85.8573 152.966 87.01 153.61 88.578C154.254 90.146 154.576 92.1667 154.576 94.64C154.576 97.1133 154.249 99.134 153.596 100.702C152.952 102.27 152.028 103.423 150.824 104.16C149.62 104.897 148.187 105.266 146.526 105.266ZM146.526 101.542C147.282 101.542 147.926 101.337 148.458 100.926C148.99 100.506 149.396 99.7967 149.676 98.798C149.965 97.7993 150.11 96.418 150.11 94.654C150.11 92.89 149.965 91.504 149.676 90.496C149.396 89.488 148.99 88.7787 148.458 88.368C147.926 87.948 147.282 87.738 146.526 87.738C145.779 87.738 145.135 87.948 144.594 88.368C144.053 88.7787 143.642 89.4833 143.362 90.482C143.082 91.4807 142.942 92.862 142.942 94.626C142.942 96.39 143.082 97.776 143.362 98.784C143.642 99.792 144.048 100.506 144.58 100.926C145.121 101.337 145.77 101.542 146.526 101.542ZM165.257 105.266C163.586 105.266 162.149 104.897 160.945 104.16C159.741 103.423 158.817 102.27 158.173 100.702C157.529 99.134 157.207 97.1133 157.207 94.64C157.207 92.1667 157.529 90.146 158.173 88.578C158.817 87.01 159.736 85.8573 160.931 85.12C162.135 84.3827 163.577 84.014 165.257 84.014C166.927 84.014 168.365 84.3827 169.569 85.12C170.773 85.8573 171.697 87.01 172.341 88.578C172.985 90.146 173.307 92.1667 173.307 94.64C173.307 97.1133 172.98 99.134 172.327 100.702C171.683 102.27 170.759 103.423 169.555 104.16C168.351 104.897 166.918 105.266 165.257 105.266ZM165.257 101.542C166.013 101.542 166.657 101.337 167.189 100.926C167.721 100.506 168.127 99.7967 168.407 98.798C168.696 97.7993 168.841 96.418 168.841 94.654C168.841 92.89 168.696 91.504 168.407 90.496C168.127 89.488 167.721 88.7787 167.189 88.368C166.657 87.948 166.013 87.738 165.257 87.738C164.51 87.738 163.866 87.948 163.325 88.368C162.783 88.7787 162.373 89.4833 162.093 90.482C161.813 91.4807 161.673 92.862 161.673 94.626C161.673 96.39 161.813 97.776 162.093 98.784C162.373 99.792 162.779 100.506 163.311 100.926C163.852 101.337 164.501 101.542 165.257 101.542Z" fill="#772BC7"/>
<path d="M43.616 155.152C42.6933 155.152 41.8667 155.04 41.136 154.816C40.4107 154.587 39.7947 154.232 39.288 153.752C38.7813 153.267 38.3947 152.64 38.128 151.872C37.8613 151.104 37.728 150.181 37.728 149.104C37.728 147.723 37.9627 146.581 38.432 145.68C38.9067 144.779 39.592 144.109 40.488 143.672C41.384 143.229 42.4693 143.008 43.744 143.008C44.1973 143.008 44.6347 143.035 45.056 143.088C45.4773 143.136 45.8907 143.211 46.296 143.312V145.096C45.9067 144.995 45.512 144.92 45.112 144.872C44.7173 144.824 44.312 144.8 43.896 144.8C43.0267 144.8 42.3013 144.941 41.72 145.224C41.1387 145.507 40.7013 145.963 40.408 146.592C40.12 147.216 39.976 148.043 39.976 149.072C39.976 150.133 40.1227 150.979 40.416 151.608C40.7093 152.232 41.1387 152.68 41.704 152.952C42.2747 153.224 42.976 153.36 43.808 153.36C44.224 153.36 44.6347 153.328 45.04 153.264C45.4453 153.2 45.864 153.101 46.296 152.968V154.752C45.912 154.875 45.4907 154.971 45.032 155.04C44.5733 155.115 44.1013 155.152 43.616 155.152ZM49.9301 155.152C49.0608 155.152 48.3808 154.928 47.8901 154.48C47.4048 154.027 47.1621 153.427 47.1621 152.68C47.1621 151.88 47.4341 151.256 47.9781 150.808C48.5275 150.355 49.4101 150.083 50.6261 149.992L52.6421 149.8L52.8661 151.016L50.8261 151.2C50.2661 151.253 49.8635 151.387 49.6181 151.6C49.3728 151.813 49.2501 152.107 49.2501 152.48C49.2501 152.859 49.3621 153.149 49.5861 153.352C49.8101 153.555 50.1408 153.656 50.5781 153.656C50.8661 153.656 51.1568 153.6 51.4501 153.488C51.7435 153.376 52.0101 153.189 52.2501 152.928V149.496C52.2501 149.053 52.1781 148.707 52.0341 148.456C51.8955 148.2 51.6715 148.021 51.3621 147.92C51.0581 147.813 50.6608 147.76 50.1701 147.76C49.8395 147.76 49.4635 147.789 49.0421 147.848C48.6208 147.907 48.2101 147.997 47.8101 148.12V146.512C48.2208 146.389 48.6688 146.296 49.1541 146.232C49.6448 146.168 50.1035 146.136 50.5301 146.136C51.3888 146.136 52.0955 146.245 52.6501 146.464C53.2101 146.677 53.6261 147.04 53.8981 147.552C54.1701 148.059 54.3061 148.749 54.3061 149.624V155H52.5701L52.4181 154.096H52.3141C52.0475 154.453 51.7035 154.72 51.2821 154.896C50.8661 155.067 50.4155 155.152 49.9301 155.152ZM56.3056 155V146.272H58.0336L58.2016 147.416H58.3056C58.5723 146.989 58.9163 146.675 59.3376 146.472C59.759 146.269 60.215 146.168 60.7056 146.168C60.8336 146.168 60.9563 146.173 61.0736 146.184C61.1963 146.195 61.3056 146.208 61.4016 146.224V148.136C61.2736 148.115 61.1376 148.101 60.9936 148.096C60.855 148.085 60.7163 148.08 60.5776 148.08C60.3163 148.08 60.0496 148.117 59.7776 148.192C59.5056 148.261 59.2496 148.368 59.0096 148.512C58.7696 148.656 58.5696 148.837 58.4096 149.056V155H56.3056ZM65.527 155.152C64.887 155.152 64.2977 155.008 63.759 154.72C63.2257 154.427 62.799 153.963 62.479 153.328C62.159 152.688 61.999 151.851 61.999 150.816C61.999 149.792 62.175 148.933 62.527 148.24C62.879 147.541 63.399 147.016 64.087 146.664C64.775 146.307 65.623 146.128 66.631 146.128C66.8337 146.128 67.0337 146.136 67.231 146.152C67.4337 146.168 67.6177 146.189 67.783 146.216V142.072H69.887V155H68.119L67.983 154.072H67.879C67.623 154.392 67.2977 154.653 66.903 154.856C66.5083 155.053 66.0497 155.152 65.527 155.152ZM66.119 153.416C66.423 153.416 66.7243 153.355 67.023 153.232C67.3217 153.109 67.575 152.917 67.783 152.656V147.872C67.6283 147.84 67.447 147.813 67.239 147.792C67.031 147.765 66.8257 147.752 66.623 147.752C65.7963 147.752 65.1723 147.976 64.751 148.424C64.3297 148.872 64.119 149.613 64.119 150.648C64.119 151.363 64.2017 151.92 64.367 152.32C64.5377 152.72 64.7723 153.003 65.071 153.168C65.375 153.333 65.7243 153.416 66.119 153.416ZM76.0743 155V143.16H78.2343L84.2583 152.392H83.8583V143.16H85.8743V155H83.7143L77.6903 145.768H78.0903V155H76.0743ZM90.9429 155.152C90.3722 155.152 89.8655 155.043 89.4229 154.824C88.9855 154.605 88.6415 154.256 88.3909 153.776C88.1402 153.291 88.0149 152.648 88.0149 151.848V146.272H90.1109V151.72C90.1109 152.323 90.2389 152.741 90.4949 152.976C90.7562 153.211 91.0949 153.328 91.5109 153.328C91.7189 153.328 91.9349 153.299 92.1589 153.24C92.3882 153.176 92.6069 153.08 92.8149 152.952C93.0229 152.819 93.2069 152.653 93.3669 152.456V146.272H95.4709V155H93.7269L93.5829 154.096H93.4869C93.1455 154.443 92.7562 154.707 92.3189 154.888C91.8815 155.064 91.4229 155.152 90.9429 155.152ZM97.5556 155V146.272H99.2996L99.4436 147.2H99.5476C99.8676 146.848 100.236 146.584 100.652 146.408C101.073 146.227 101.532 146.136 102.028 146.136C102.534 146.136 102.988 146.243 103.388 146.456C103.788 146.669 104.102 147.016 104.332 147.496C104.561 147.971 104.676 148.6 104.676 149.384V155H102.62V149.56C102.62 148.957 102.502 148.541 102.268 148.312C102.038 148.077 101.732 147.96 101.348 147.96C101.15 147.96 100.948 147.992 100.74 148.056C100.532 148.115 100.334 148.211 100.148 148.344C99.961 148.477 99.7983 148.648 99.6596 148.856V155H97.5556ZM107.58 155V149.56C107.58 148.957 107.457 148.541 107.212 148.312C106.966 148.077 106.649 147.96 106.26 147.96C106.057 147.96 105.846 147.992 105.628 148.056C105.409 148.12 105.201 148.227 105.004 148.376C104.806 148.52 104.636 148.715 104.492 148.96L104.044 147.528C104.449 147.021 104.9 146.664 105.396 146.456C105.897 146.243 106.39 146.136 106.876 146.136C107.414 146.136 107.894 146.245 108.316 146.464C108.737 146.677 109.068 147.027 109.308 147.512C109.553 147.997 109.676 148.643 109.676 149.448V155H107.58ZM114.809 155.16C114.286 155.16 113.753 155.123 113.209 155.048C112.665 154.973 112.155 154.859 111.681 154.704V142.072H113.785V147.144H113.889C114.15 146.835 114.475 146.589 114.865 146.408C115.254 146.227 115.699 146.136 116.201 146.136C116.809 146.136 117.369 146.283 117.881 146.576C118.393 146.869 118.801 147.333 119.105 147.968C119.414 148.603 119.569 149.435 119.569 150.464C119.569 152.016 119.171 153.187 118.377 153.976C117.587 154.765 116.398 155.16 114.809 155.16ZM114.985 153.536C115.795 153.536 116.409 153.312 116.825 152.864C117.241 152.416 117.449 151.675 117.449 150.64C117.449 149.92 117.363 149.36 117.193 148.96C117.022 148.56 116.785 148.28 116.481 148.12C116.182 147.96 115.835 147.88 115.441 147.88C115.137 147.88 114.838 147.936 114.545 148.048C114.251 148.16 113.998 148.333 113.785 148.568V153.384C113.945 153.427 114.129 153.464 114.337 153.496C114.545 153.523 114.761 153.536 114.985 153.536ZM125.481 155.16C124.452 155.16 123.598 155.005 122.921 154.696C122.249 154.381 121.748 153.891 121.417 153.224C121.086 152.557 120.921 151.693 120.921 150.632C120.921 149.645 121.073 148.819 121.377 148.152C121.686 147.485 122.129 146.984 122.705 146.648C123.281 146.307 123.977 146.136 124.793 146.136C125.577 146.136 126.238 146.307 126.777 146.648C127.321 146.984 127.732 147.491 128.009 148.168C128.286 148.845 128.425 149.688 128.425 150.696V151.264H122.105V150H126.825L126.457 150.176C126.457 149.515 126.393 148.989 126.265 148.6C126.137 148.211 125.948 147.933 125.697 147.768C125.446 147.597 125.137 147.512 124.769 147.512C124.401 147.512 124.086 147.595 123.825 147.76C123.564 147.925 123.364 148.203 123.225 148.592C123.092 148.981 123.025 149.507 123.025 150.168V150.984C123.025 151.613 123.113 152.117 123.289 152.496C123.47 152.869 123.761 153.139 124.161 153.304C124.561 153.464 125.097 153.544 125.769 153.544C126.105 153.544 126.457 153.517 126.825 153.464C127.193 153.411 127.572 153.336 127.961 153.24V154.848C127.513 154.96 127.086 155.04 126.681 155.088C126.281 155.136 125.881 155.16 125.481 155.16ZM129.978 155V146.272H131.706L131.874 147.416H131.978C132.244 146.989 132.588 146.675 133.01 146.472C133.431 146.269 133.887 146.168 134.378 146.168C134.506 146.168 134.628 146.173 134.746 146.184C134.868 146.195 134.978 146.208 135.074 146.224V148.136C134.946 148.115 134.81 148.101 134.666 148.096C134.527 148.085 134.388 148.08 134.25 148.08C133.988 148.08 133.722 148.117 133.45 148.192C133.178 148.261 132.922 148.368 132.682 148.512C132.442 148.656 132.242 148.837 132.082 149.056V155H129.978Z" fill="#3D2E87"/>
<path d="M43.5205 175.051L44.98 176.437L45.9565 177.77L44.1505 179.072L43.1845 177.749L42.2815 175.817L41.368 177.749L40.402 179.072L38.6065 177.77L39.5725 176.437L41.032 175.051L39.0685 174.778L37.315 174.211L38.008 172.1L39.751 172.678L41.5465 173.654L41.1685 171.638V170.032H43.3945V171.638L43.0165 173.654L44.812 172.678L46.555 172.1L47.248 174.211L45.4945 174.778L43.5205 175.051ZM54.082 175.051L55.5415 176.437L56.518 177.77L54.712 179.072L53.746 177.749L52.843 175.817L51.9295 177.749L50.9635 179.072L49.168 177.77L50.134 176.437L51.5935 175.051L49.63 174.778L47.8765 174.211L48.5695 172.1L50.3125 172.678L52.108 173.654L51.73 171.638V170.032H53.956V171.638L53.578 173.654L55.3735 172.678L57.1165 172.1L57.8095 174.211L56.056 174.778L54.082 175.051ZM64.6435 175.051L66.103 176.437L67.0795 177.77L65.2735 179.072L64.3075 177.749L63.4045 175.817L62.491 177.749L61.525 179.072L59.7295 177.77L60.6955 176.437L62.155 175.051L60.1915 174.778L58.438 174.211L59.131 172.1L60.874 172.678L62.6695 173.654L62.2915 171.638V170.032H64.5175V171.638L64.1395 173.654L65.935 172.678L67.678 172.1L68.371 174.211L66.6175 174.778L64.6435 175.051ZM75.2051 175.051L76.6646 176.437L77.6411 177.77L75.8351 179.072L74.8691 177.749L73.9661 175.817L73.0526 177.749L72.0866 179.072L70.2911 177.77L71.2571 176.437L72.7166 175.051L70.7531 174.778L68.9996 174.211L69.6926 172.1L71.4356 172.678L73.2311 173.654L72.8531 171.638V170.032H75.0791V171.638L74.7011 173.654L76.4966 172.678L78.2396 172.1L78.9326 174.211L77.1791 174.778L75.2051 175.051Z" fill="#3D2E87"/>
<path d="M98.5205 175.051L99.98 176.437L100.957 177.77L99.1505 179.072L98.1845 177.749L97.2815 175.817L96.368 177.749L95.402 179.072L93.6065 177.77L94.5725 176.437L96.032 175.051L94.0685 174.778L92.315 174.211L93.008 172.1L94.751 172.678L96.5465 173.654L96.1685 171.638V170.032H98.3945V171.638L98.0165 173.654L99.812 172.678L101.555 172.1L102.248 174.211L100.495 174.778L98.5205 175.051ZM109.082 175.051L110.542 176.437L111.518 177.77L109.712 179.072L108.746 177.749L107.843 175.817L106.93 177.749L105.964 179.072L104.168 177.77L105.134 176.437L106.594 175.051L104.63 174.778L102.877 174.211L103.57 172.1L105.313 172.678L107.108 173.654L106.73 171.638V170.032H108.956V171.638L108.578 173.654L110.374 172.678L112.117 172.1L112.81 174.211L111.056 174.778L109.082 175.051ZM119.644 175.051L121.103 176.437L122.08 177.77L120.274 179.072L119.308 177.749L118.405 175.817L117.491 177.749L116.525 179.072L114.73 177.77L115.696 176.437L117.155 175.051L115.192 174.778L113.438 174.211L114.131 172.1L115.874 172.678L117.67 173.654L117.292 171.638V170.032H119.518V171.638L119.14 173.654L120.935 172.678L122.678 172.1L123.371 174.211L121.618 174.778L119.644 175.051ZM130.205 175.051L131.665 176.437L132.641 177.77L130.835 179.072L129.869 177.749L128.966 175.817L128.053 177.749L127.087 179.072L125.291 177.77L126.257 176.437L127.717 175.051L125.753 174.778L124 174.211L124.693 172.1L126.436 172.678L128.231 173.654L127.853 171.638V170.032H130.079V171.638L129.701 173.654L131.497 172.678L133.24 172.1L133.933 174.211L132.179 174.778L130.205 175.051Z" fill="#3D2E87"/>
<path d="M153.521 175.051L154.98 176.437L155.957 177.77L154.151 179.072L153.185 177.749L152.282 175.817L151.368 177.749L150.402 179.072L148.607 177.77L149.573 176.437L151.032 175.051L149.069 174.778L147.315 174.211L148.008 172.1L149.751 172.678L151.547 173.654L151.169 171.638V170.032H153.395V171.638L153.017 173.654L154.812 172.678L156.555 172.1L157.248 174.211L155.495 174.778L153.521 175.051ZM164.082 175.051L165.542 176.437L166.518 177.77L164.712 179.072L163.746 177.749L162.843 175.817L161.93 177.749L160.964 179.072L159.168 177.77L160.134 176.437L161.594 175.051L159.63 174.778L157.877 174.211L158.57 172.1L160.313 172.678L162.108 173.654L161.73 171.638V170.032H163.956V171.638L163.578 173.654L165.374 172.678L167.117 172.1L167.81 174.211L166.056 174.778L164.082 175.051ZM174.644 175.051L176.103 176.437L177.08 177.77L175.274 179.072L174.308 177.749L173.405 175.817L172.491 177.749L171.525 179.072L169.73 177.77L170.696 176.437L172.155 175.051L170.192 174.778L168.438 174.211L169.131 172.1L170.874 172.678L172.67 173.654L172.292 171.638V170.032H174.518V171.638L174.14 173.654L175.935 172.678L177.678 172.1L178.371 174.211L176.618 174.778L174.644 175.051ZM185.205 175.051L186.665 176.437L187.641 177.77L185.835 179.072L184.869 177.749L183.966 175.817L183.053 177.749L182.087 179.072L180.291 177.77L181.257 176.437L182.717 175.051L180.753 174.778L179 174.211L179.693 172.1L181.436 172.678L183.231 173.654L182.853 171.638V170.032H185.079V171.638L184.701 173.654L186.497 172.678L188.24 172.1L188.933 174.211L187.179 174.778L185.205 175.051Z" fill="#3D2E87"/>
<path d="M205.812 187V173.444L207.03 174.599L202.284 177.875V174.694L207.03 171.407H209.224V187H205.812ZM211.22 187V185.173L215.514 179.818C215.955 179.258 216.309 178.761 216.575 178.327C216.841 177.893 217.03 177.497 217.142 177.14C217.261 176.776 217.32 176.423 217.32 176.08C217.32 175.373 217.096 174.851 216.648 174.515C216.207 174.172 215.483 174.001 214.475 174.001C213.859 174.001 213.25 174.057 212.648 174.169C212.046 174.274 211.507 174.421 211.031 174.61V171.838C211.339 171.726 211.706 171.628 212.133 171.544C212.567 171.453 213.019 171.383 213.488 171.334C213.957 171.285 214.408 171.26 214.842 171.26C216.76 171.26 218.213 171.621 219.2 172.342C220.187 173.056 220.68 174.193 220.68 175.754C220.68 176.279 220.61 176.804 220.47 177.329C220.337 177.847 220.106 178.393 219.777 178.967C219.455 179.534 219.018 180.154 218.465 180.826L215 185.047L214.905 184.186H221.426V187H211.22ZM226.551 187.2C225.83 187.2 225.126 187.154 224.44 187.063C223.761 186.972 223.117 186.839 222.508 186.664V184.112C223.103 184.28 223.747 184.413 224.44 184.511C225.133 184.609 225.791 184.658 226.414 184.658C227.534 184.658 228.35 184.473 228.861 184.102C229.372 183.731 229.627 183.188 229.627 182.474C229.627 181.788 229.382 181.263 228.892 180.899C228.409 180.528 227.59 180.343 226.435 180.343H224.157V177.76H225.921C227.041 177.76 227.842 177.581 228.325 177.224C228.815 176.867 229.06 176.367 229.06 175.723C229.06 175.093 228.836 174.617 228.388 174.295C227.947 173.966 227.247 173.801 226.288 173.801C225.707 173.801 225.109 173.85 224.493 173.948C223.884 174.046 223.313 174.19 222.781 174.379V171.827C223.117 171.715 223.502 171.617 223.936 171.533C224.37 171.442 224.822 171.376 225.291 171.334C225.76 171.285 226.215 171.26 226.656 171.26C228.539 171.26 229.953 171.624 230.898 172.352C231.85 173.073 232.326 174.095 232.326 175.418C232.326 176.356 232.056 177.147 231.517 177.791C230.985 178.435 230.247 178.859 229.302 179.062L229.312 178.894C230.439 179.062 231.307 179.468 231.916 180.112C232.525 180.749 232.83 181.606 232.83 182.684C232.83 183.622 232.599 184.431 232.137 185.11C231.682 185.782 230.989 186.3 230.058 186.664C229.127 187.021 227.958 187.2 226.551 187.2ZM234.053 183.797V181.939L239.471 171.46H242.747L237.392 181.949L237.014 181.172H246.684V183.797H234.053ZM241.613 187V181.172L241.959 176.71H244.679V187H241.613Z" fill="#3D2E87"/>
<path d="M41.384 204.008C42.0453 204.008 42.648 204.115 43.192 204.328C43.736 204.536 44.2053 204.867 44.6 205.32C44.9947 205.773 45.2987 206.363 45.512 207.088C45.7253 207.808 45.832 208.677 45.832 209.696C45.832 211.163 45.6187 212.373 45.192 213.328C44.7653 214.283 44.144 214.992 43.328 215.456C42.5173 215.92 41.528 216.152 40.36 216.152C39.9333 216.152 39.5227 216.125 39.128 216.072C38.7333 216.019 38.368 215.925 38.032 215.792V214.128C38.3733 214.256 38.7333 214.349 39.112 214.408C39.496 214.467 39.88 214.496 40.264 214.496C41.0373 214.496 41.6827 214.347 42.2 214.048C42.7173 213.749 43.104 213.288 43.36 212.664C43.616 212.035 43.744 211.229 43.744 210.248V209.392C43.744 208.656 43.688 208.043 43.576 207.552C43.464 207.056 43.304 206.667 43.096 206.384C42.888 206.096 42.6373 205.891 42.344 205.768C42.056 205.645 41.7307 205.584 41.368 205.584C40.9893 205.584 40.6507 205.653 40.352 205.792C40.0587 205.931 39.8267 206.149 39.656 206.448C39.4853 206.741 39.4 207.12 39.4 207.584C39.4 208.048 39.488 208.429 39.664 208.728C39.8453 209.027 40.0987 209.248 40.424 209.392C40.7547 209.531 41.1413 209.6 41.584 209.6C41.8773 209.6 42.176 209.565 42.48 209.496C42.7893 209.427 43.0827 209.315 43.36 209.16C43.6427 209.005 43.8907 208.808 44.104 208.568V210.12C43.784 210.451 43.3573 210.709 42.824 210.896C42.296 211.077 41.7493 211.168 41.184 211.168C40.464 211.168 39.8213 211.043 39.256 210.792C38.696 210.541 38.2533 210.157 37.928 209.64C37.608 209.117 37.448 208.453 37.448 207.648C37.448 206.875 37.6107 206.216 37.936 205.672C38.2613 205.128 38.7173 204.715 39.304 204.432C39.896 204.149 40.5893 204.008 41.384 204.008ZM46.6719 217.92L50.4159 203.072H52.4959L48.7439 217.92H46.6719ZM53.1035 216V214.848L56.4155 210.616C56.7728 210.163 57.0555 209.757 57.2635 209.4C57.4768 209.043 57.6288 208.715 57.7195 208.416C57.8155 208.117 57.8635 207.824 57.8635 207.536C57.8635 206.917 57.6795 206.467 57.3115 206.184C56.9488 205.896 56.3675 205.752 55.5675 205.752C55.1035 205.752 54.6448 205.795 54.1915 205.88C53.7435 205.96 53.3328 206.072 52.9595 206.216V204.456C53.1942 204.365 53.4688 204.288 53.7835 204.224C54.0982 204.155 54.4288 204.101 54.7755 204.064C55.1222 204.027 55.4582 204.008 55.7835 204.008C57.1542 204.008 58.1968 204.275 58.9115 204.808C59.6262 205.336 59.9835 206.179 59.9835 207.336C59.9835 207.747 59.9275 208.152 59.8155 208.552C59.7088 208.952 59.5302 209.376 59.2795 209.824C59.0288 210.267 58.6875 210.755 58.2555 211.288L55.4795 214.776L55.3995 214.216H60.5755V216H53.1035ZM63.9604 216V205.472L64.7284 206.152L61.1924 208.624V206.6L64.7284 204.12H66.1044V216H63.9604Z" fill="#3D2E87"/>
<path d="M83.332 215L80.007 204.64H82.387L85.313 214.069H84.823L87.798 204.64H90.01L86.692 215H83.332ZM90.9525 215V204.64H93.2275V215H90.9525ZM97.6851 215.133C97.1857 215.133 96.6841 215.093 96.1801 215.014C95.6807 214.939 95.2187 214.832 94.7941 214.692V212.844C95.0881 212.942 95.4007 213.026 95.7321 213.096C96.0634 213.161 96.3947 213.213 96.7261 213.25C97.0621 213.287 97.3794 213.306 97.6781 213.306C98.3734 213.306 98.8657 213.201 99.1551 212.991C99.4444 212.776 99.5891 212.478 99.5891 212.095C99.5891 211.773 99.4817 211.521 99.2671 211.339C99.0571 211.157 98.6627 210.991 98.0841 210.842L97.3001 210.639C96.3947 210.41 95.7087 210.056 95.2421 209.575C94.7801 209.09 94.5491 208.45 94.5491 207.657C94.5491 206.668 94.9061 205.895 95.6201 205.34C96.3387 204.785 97.4191 204.507 98.8611 204.507C99.3277 204.507 99.7711 204.535 100.191 204.591C100.616 204.642 100.991 204.715 101.318 204.808V206.656C100.987 206.553 100.618 206.474 100.212 206.418C99.8061 206.362 99.3977 206.334 98.9871 206.334C98.4457 206.334 98.0164 206.385 97.6991 206.488C97.3817 206.586 97.1531 206.726 97.0131 206.908C96.8777 207.09 96.8101 207.3 96.8101 207.538C96.8101 207.841 96.9034 208.079 97.0901 208.252C97.2767 208.425 97.6267 208.581 98.1401 208.721L98.9171 208.924C99.5891 209.087 100.142 209.304 100.576 209.575C101.01 209.841 101.33 210.17 101.535 210.562C101.745 210.949 101.85 211.409 101.85 211.941C101.85 212.604 101.684 213.175 101.353 213.656C101.026 214.132 100.553 214.498 99.9321 214.755C99.3114 215.007 98.5624 215.133 97.6851 215.133ZM102.096 215L105.442 204.64H108.753L112.099 215H109.859L106.961 205.634H107.199L104.308 215H102.096ZM104.42 212.235L104.91 210.422H109.278L109.761 212.235H104.42Z" fill="#3D2E87"/>
<defs>
<linearGradient id="paint0_linear_4021_208" x1="144" y1="0" x2="144" y2="250" gradientUnits="userSpaceOnUse">
<stop stop-color="#FBFAFC"/>
<stop offset="1" stop-color="#E4D5F4"/>
</linearGradient>
</defs>
</svg>
