<svg width="361" height="250" viewBox="0 0 361 250" fill="none" xmlns="http://www.w3.org/2000/svg">
<rect x="7" width="354" height="250" rx="24" fill="url(#paint0_linear_4022_256)"/>
<g filter="url(#filter0_d_4022_256)">
<path d="M339 143.004C330.826 141.986 321.735 142.343 315.5 146.5C302 155.5 288.5 154.5 277 137.5C265.5 120.5 253.5 122.5 234 129C214.5 135.5 210.5 121.5 197 99.0002C183.5 76.5002 179.5 91.0002 166 114C152.5 137 155 139 125.5 134.5C96 130 97 141.5 82.5 149.5C68 157.5 51 143 37 141C21.9477 138.85 15.6499 144.166 7 147.726" stroke="#6C26B1" stroke-width="3"/>
</g>
<circle cx="185" cy="88" r="6" fill="#6C26B1"/>
<path d="M53.029 49.171C51.763 49.171 50.659 48.925 49.717 48.433C48.781 47.941 48.052 47.191 47.53 46.183C47.014 45.169 46.756 43.888 46.756 42.34C46.756 40.792 47.014 39.514 47.53 38.506C48.052 37.492 48.781 36.739 49.717 36.247C50.659 35.755 51.763 35.509 53.029 35.509C54.295 35.509 55.396 35.758 56.332 36.256C57.274 36.748 58.003 37.501 58.519 38.515C59.041 39.523 59.302 40.798 59.302 42.34C59.302 43.882 59.041 45.16 58.519 46.174C58.003 47.182 57.274 47.935 56.332 48.433C55.39 48.925 54.289 49.171 53.029 49.171ZM53.029 46.813C53.713 46.813 54.298 46.666 54.784 46.372C55.276 46.072 55.651 45.598 55.909 44.95C56.173 44.302 56.305 43.453 56.305 42.403C56.305 41.311 56.173 40.435 55.909 39.775C55.645 39.109 55.267 38.626 54.775 38.326C54.289 38.02 53.707 37.867 53.029 37.867C52.351 37.867 51.766 38.014 51.274 38.308C50.788 38.602 50.413 39.073 50.149 39.721C49.885 40.369 49.753 41.221 49.753 42.277C49.753 43.375 49.882 44.257 50.14 44.923C50.404 45.583 50.779 46.063 51.265 46.363C51.757 46.663 52.345 46.813 53.029 46.813ZM64.4455 49.171C63.7915 49.171 63.2095 49.045 62.6995 48.793C62.1895 48.535 61.7875 48.124 61.4935 47.56C61.1995 46.996 61.0525 46.249 61.0525 45.319V39.154H63.9235V45.121C63.9235 45.715 64.0465 46.126 64.2925 46.354C64.5445 46.582 64.8715 46.696 65.2735 46.696C65.4715 46.696 65.6785 46.669 65.8945 46.615C66.1165 46.555 66.3265 46.465 66.5245 46.345C66.7225 46.225 66.8965 46.075 67.0465 45.895V39.154H69.9085V49H67.5505L67.3525 48.01H67.2265C66.8545 48.388 66.4315 48.676 65.9575 48.874C65.4835 49.072 64.9795 49.171 64.4455 49.171ZM76.5907 49.18C75.4027 49.18 74.4877 48.886 73.8457 48.298C73.2097 47.704 72.8917 46.765 72.8917 45.481V39.154L73.4137 35.68H75.7537V45.031C75.7537 45.709 75.8797 46.177 76.1317 46.435C76.3897 46.693 76.8037 46.822 77.3737 46.822C77.5297 46.822 77.6887 46.813 77.8507 46.795C78.0187 46.771 78.2047 46.741 78.4087 46.705V48.973C78.1507 49.027 77.8597 49.075 77.5357 49.117C77.2177 49.159 76.9027 49.18 76.5907 49.18ZM71.2897 41.413V39.154H78.3457V41.413H71.2897ZM84.358 49.189C83.26 49.189 82.33 49.003 81.568 48.631C80.812 48.259 80.236 47.698 79.84 46.948C79.444 46.192 79.246 45.241 79.246 44.095C79.246 42.937 79.456 41.983 79.876 41.233C80.302 40.477 80.917 39.916 81.721 39.55C82.531 39.184 83.509 39.001 84.655 39.001C85.051 39.001 85.432 39.019 85.798 39.055C86.17 39.091 86.521 39.148 86.851 39.226V41.494C86.539 41.434 86.236 41.389 85.942 41.359C85.648 41.329 85.351 41.314 85.051 41.314C84.391 41.314 83.851 41.407 83.431 41.593C83.011 41.779 82.702 42.076 82.504 42.484C82.306 42.886 82.207 43.414 82.207 44.068C82.207 44.746 82.303 45.292 82.495 45.706C82.693 46.114 82.984 46.411 83.368 46.597C83.752 46.783 84.232 46.876 84.808 46.876C85.12 46.876 85.435 46.849 85.753 46.795C86.071 46.741 86.437 46.657 86.851 46.543V48.811C86.491 48.931 86.098 49.024 85.672 49.09C85.246 49.156 84.808 49.189 84.358 49.189ZM92.586 49.189C91.602 49.189 90.75 49.003 90.03 48.631C89.316 48.253 88.764 47.689 88.374 46.939C87.984 46.183 87.789 45.238 87.789 44.104C87.789 42.958 87.978 42.007 88.356 41.251C88.74 40.495 89.289 39.931 90.003 39.559C90.723 39.187 91.584 39.001 92.586 39.001C93.588 39.001 94.446 39.19 95.16 39.568C95.88 39.94 96.429 40.504 96.807 41.26C97.191 42.01 97.383 42.952 97.383 44.086C97.383 45.226 97.188 46.174 96.798 46.93C96.408 47.686 95.853 48.253 95.133 48.631C94.419 49.003 93.57 49.189 92.586 49.189ZM92.586 47.011C92.988 47.011 93.33 46.924 93.612 46.75C93.9 46.576 94.119 46.279 94.269 45.859C94.419 45.433 94.494 44.851 94.494 44.113C94.494 43.357 94.419 42.766 94.269 42.34C94.119 41.914 93.9 41.614 93.612 41.44C93.33 41.26 92.988 41.17 92.586 41.17C92.184 41.17 91.839 41.257 91.551 41.431C91.269 41.605 91.053 41.905 90.903 42.331C90.753 42.751 90.678 43.333 90.678 44.077C90.678 44.833 90.753 45.424 90.903 45.85C91.053 46.276 91.269 46.576 91.551 46.75C91.839 46.924 92.184 47.011 92.586 47.011ZM99.0671 49V39.154H101.434L101.623 40.162H101.758C102.106 39.778 102.511 39.49 102.973 39.298C103.441 39.1 103.957 39.001 104.521 39.001C105.103 39.001 105.625 39.127 106.087 39.379C106.555 39.625 106.921 40.027 107.185 40.585C107.455 41.137 107.59 41.869 107.59 42.781V49H104.782V43.024C104.782 42.436 104.671 42.031 104.449 41.809C104.233 41.581 103.933 41.467 103.549 41.467C103.357 41.467 103.159 41.497 102.955 41.557C102.757 41.617 102.568 41.707 102.388 41.827C102.214 41.947 102.061 42.1 101.929 42.286V49H99.0671ZM110.38 49V43.024C110.38 42.436 110.26 42.031 110.02 41.809C109.78 41.581 109.471 41.467 109.093 41.467C108.883 41.467 108.673 41.5 108.463 41.566C108.259 41.626 108.064 41.722 107.878 41.854C107.692 41.986 107.53 42.157 107.392 42.367L106.825 40.504C107.263 39.97 107.758 39.586 108.31 39.352C108.862 39.118 109.417 39.001 109.975 39.001C110.605 39.001 111.166 39.127 111.658 39.379C112.15 39.631 112.537 40.042 112.819 40.612C113.101 41.182 113.242 41.935 113.242 42.871V49H110.38ZM120.268 49.189C119.032 49.189 118.015 49.012 117.217 48.658C116.419 48.304 115.825 47.749 115.435 46.993C115.051 46.237 114.859 45.262 114.859 44.068C114.859 42.982 115.036 42.061 115.39 41.305C115.75 40.549 116.269 39.976 116.947 39.586C117.631 39.196 118.459 39.001 119.431 39.001C120.361 39.001 121.144 39.199 121.78 39.595C122.416 39.985 122.896 40.564 123.22 41.332C123.544 42.1 123.706 43.042 123.706 44.158V44.905H116.497V43.258H121.492L121.033 43.429C121.033 42.781 120.973 42.265 120.853 41.881C120.733 41.497 120.55 41.224 120.304 41.062C120.064 40.9 119.764 40.819 119.404 40.819C119.038 40.819 118.729 40.9 118.477 41.062C118.231 41.224 118.042 41.497 117.91 41.881C117.784 42.259 117.721 42.772 117.721 43.42V44.572C117.721 45.178 117.808 45.661 117.982 46.021C118.162 46.375 118.465 46.63 118.891 46.786C119.323 46.942 119.917 47.02 120.673 47.02C121.057 47.02 121.459 46.993 121.879 46.939C122.305 46.879 122.731 46.801 123.157 46.705V48.856C122.635 48.976 122.137 49.06 121.663 49.108C121.195 49.162 120.73 49.189 120.268 49.189ZM133.285 49.171C132.643 49.171 131.998 49.12 131.35 49.018C130.708 48.922 130.114 48.784 129.568 48.604V46.228C129.946 46.354 130.348 46.462 130.774 46.552C131.2 46.636 131.626 46.702 132.052 46.75C132.484 46.798 132.892 46.822 133.276 46.822C134.17 46.822 134.803 46.687 135.175 46.417C135.547 46.141 135.733 45.757 135.733 45.265C135.733 44.851 135.595 44.527 135.319 44.293C135.049 44.059 134.542 43.846 133.798 43.654L132.79 43.393C131.626 43.099 130.744 42.643 130.144 42.025C129.55 41.401 129.253 40.579 129.253 39.559C129.253 38.287 129.712 37.294 130.63 36.58C131.554 35.866 132.943 35.509 134.797 35.509C135.397 35.509 135.967 35.545 136.507 35.617C137.053 35.683 137.536 35.776 137.956 35.896V38.272C137.53 38.14 137.056 38.038 136.534 37.966C136.012 37.894 135.487 37.858 134.959 37.858C134.263 37.858 133.711 37.924 133.303 38.056C132.895 38.182 132.601 38.362 132.421 38.596C132.247 38.83 132.16 39.1 132.16 39.406C132.16 39.796 132.28 40.102 132.52 40.324C132.76 40.546 133.21 40.747 133.87 40.927L134.869 41.188C135.733 41.398 136.444 41.677 137.002 42.025C137.56 42.367 137.971 42.79 138.235 43.294C138.505 43.792 138.64 44.383 138.64 45.067C138.64 45.919 138.427 46.654 138.001 47.272C137.581 47.884 136.972 48.355 136.174 48.685C135.376 49.009 134.413 49.171 133.285 49.171ZM144.477 49.18C143.289 49.18 142.374 48.886 141.732 48.298C141.096 47.704 140.778 46.765 140.778 45.481V39.154L141.3 35.68H143.64V45.031C143.64 45.709 143.766 46.177 144.018 46.435C144.276 46.693 144.69 46.822 145.26 46.822C145.416 46.822 145.575 46.813 145.737 46.795C145.905 46.771 146.091 46.741 146.295 46.705V48.973C146.037 49.027 145.746 49.075 145.422 49.117C145.104 49.159 144.789 49.18 144.477 49.18ZM139.176 41.413V39.154H146.232V41.413H139.176ZM150.379 49.18C149.371 49.18 148.585 48.919 148.021 48.397C147.463 47.869 147.184 47.182 147.184 46.336C147.184 45.406 147.505 44.68 148.147 44.158C148.795 43.636 149.839 43.327 151.279 43.231L153.349 43.06L153.655 44.644L151.567 44.815C151.015 44.857 150.616 44.983 150.37 45.193C150.13 45.403 150.01 45.691 150.01 46.057C150.01 46.417 150.121 46.696 150.343 46.894C150.565 47.086 150.889 47.182 151.315 47.182C151.579 47.182 151.849 47.137 152.125 47.047C152.401 46.951 152.653 46.789 152.881 46.561V42.961C152.881 42.511 152.806 42.157 152.656 41.899C152.512 41.641 152.275 41.458 151.945 41.35C151.621 41.236 151.186 41.179 150.64 41.179C150.262 41.179 149.833 41.212 149.353 41.278C148.873 41.338 148.414 41.437 147.976 41.575V39.415C148.456 39.277 148.981 39.175 149.551 39.109C150.127 39.037 150.661 39.001 151.153 39.001C152.197 39.001 153.052 39.13 153.718 39.388C154.39 39.646 154.885 40.078 155.203 40.684C155.521 41.284 155.68 42.103 155.68 43.141V49H153.322L153.124 48.019H152.989C152.695 48.421 152.32 48.715 151.864 48.901C151.408 49.087 150.913 49.18 150.379 49.18ZM162.126 49.18C160.938 49.18 160.023 48.886 159.381 48.298C158.745 47.704 158.427 46.765 158.427 45.481V39.154L158.949 35.68H161.289V45.031C161.289 45.709 161.415 46.177 161.667 46.435C161.925 46.693 162.339 46.822 162.909 46.822C163.065 46.822 163.224 46.813 163.386 46.795C163.554 46.771 163.74 46.741 163.944 46.705V48.973C163.686 49.027 163.395 49.075 163.071 49.117C162.753 49.159 162.438 49.18 162.126 49.18ZM156.825 41.413V39.154H163.881V41.413H156.825ZM168.015 49.189C167.451 49.189 166.902 49.153 166.368 49.081C165.84 49.009 165.342 48.901 164.874 48.757V46.651C165.348 46.795 165.849 46.906 166.377 46.984C166.905 47.056 167.439 47.092 167.979 47.092C168.627 47.092 169.083 47.008 169.347 46.84C169.617 46.666 169.752 46.426 169.752 46.12C169.752 45.874 169.686 45.688 169.554 45.562C169.422 45.436 169.191 45.34 168.861 45.274L167.259 44.986C166.335 44.812 165.663 44.491 165.243 44.023C164.823 43.555 164.613 42.928 164.613 42.142C164.613 41.2 164.991 40.441 165.747 39.865C166.509 39.289 167.676 39.001 169.248 39.001C169.728 39.001 170.193 39.028 170.643 39.082C171.099 39.136 171.51 39.211 171.876 39.307V41.413C171.492 41.305 171.084 41.224 170.652 41.17C170.22 41.116 169.779 41.089 169.329 41.089C168.783 41.089 168.363 41.137 168.069 41.233C167.775 41.323 167.568 41.443 167.448 41.593C167.334 41.743 167.277 41.905 167.277 42.079C167.277 42.289 167.343 42.46 167.475 42.592C167.607 42.724 167.835 42.826 168.159 42.898L169.761 43.186C170.637 43.348 171.297 43.648 171.741 44.086C172.191 44.518 172.416 45.163 172.416 46.021C172.416 46.999 172.032 47.773 171.264 48.343C170.502 48.907 169.419 49.189 168.015 49.189Z" fill="#3D2E87"/>
<path d="M47.352 73V61.16H48.648V71.872H54.48V73H47.352ZM57.9225 73.144C57.1065 73.144 56.4638 72.9333 55.9945 72.512C55.5305 72.0907 55.2985 71.512 55.2985 70.776C55.2985 70.0187 55.5465 69.4293 56.0425 69.008C56.5438 68.5813 57.3465 68.3147 58.4505 68.208L60.7785 67.96L60.8985 68.808L58.5305 69.064C57.8425 69.1333 57.3465 69.3013 57.0425 69.568C56.7438 69.8293 56.5945 70.192 56.5945 70.656C56.5945 71.1413 56.7332 71.512 57.0105 71.768C57.2878 72.024 57.7012 72.152 58.2505 72.152C58.6292 72.152 59.0105 72.072 59.3945 71.912C59.7785 71.7467 60.1225 71.472 60.4265 71.088V67.256C60.4265 66.7227 60.3438 66.312 60.1785 66.024C60.0132 65.7307 59.7652 65.5253 59.4345 65.408C59.1038 65.2907 58.6878 65.232 58.1865 65.232C57.8612 65.232 57.4905 65.2613 57.0745 65.32C56.6638 65.3787 56.2532 65.4773 55.8425 65.616V64.568C56.2158 64.4453 56.6265 64.352 57.0745 64.288C57.5278 64.2187 57.9545 64.184 58.3545 64.184C59.0905 64.184 59.7038 64.28 60.1945 64.472C60.6905 64.664 61.0612 64.9893 61.3065 65.448C61.5572 65.9013 61.6825 66.5227 61.6825 67.312V73H60.6105L60.5145 72.032H60.4345C60.1518 72.3893 59.7892 72.664 59.3465 72.856C58.9092 73.048 58.4345 73.144 57.9225 73.144ZM66.0769 73.152C65.6395 73.152 65.2209 73.1227 64.8209 73.064C64.4262 73.0053 64.0422 72.9173 63.6689 72.8V71.776C64.0955 71.904 64.5035 71.9973 64.8929 72.056C65.2822 72.1093 65.6769 72.136 66.0769 72.136C66.8289 72.136 67.3729 72.008 67.7089 71.752C68.0502 71.496 68.2209 71.136 68.2209 70.672C68.2209 70.2773 68.1195 69.976 67.9169 69.768C67.7142 69.5547 67.3702 69.3973 66.8849 69.296L65.7089 69.056C64.9195 68.8853 64.3542 68.6053 64.0129 68.216C63.6769 67.8213 63.5089 67.3147 63.5089 66.696C63.5089 65.9653 63.7889 65.3653 64.3489 64.896C64.9142 64.4213 65.7809 64.184 66.9489 64.184C67.3222 64.184 67.6769 64.2053 68.0129 64.248C68.3542 64.2907 68.6822 64.3547 68.9969 64.44V65.472C68.6449 65.376 68.3062 65.3067 67.9809 65.264C67.6609 65.2213 67.3249 65.2 66.9729 65.2C66.4235 65.2 65.9835 65.2667 65.6529 65.4C65.3275 65.528 65.0929 65.704 64.9489 65.928C64.8049 66.1467 64.7329 66.392 64.7329 66.664C64.7329 67.0053 64.8289 67.288 65.0209 67.512C65.2129 67.736 65.5489 67.9013 66.0289 68.008L67.2049 68.248C68.0049 68.4133 68.5782 68.6853 68.9249 69.064C69.2769 69.4427 69.4529 69.9573 69.4529 70.608C69.4529 71.392 69.1649 72.0133 68.5889 72.472C68.0182 72.9253 67.1809 73.152 66.0769 73.152ZM74.4262 73.152C73.5409 73.152 72.8529 72.9253 72.3623 72.472C71.8716 72.0133 71.6263 71.2827 71.6263 70.28V64.32L71.8343 61.16H72.9063V70.072C72.9063 70.8027 73.0556 71.3147 73.3543 71.608C73.6583 71.9013 74.1089 72.048 74.7063 72.048C74.8663 72.048 75.0316 72.0373 75.2023 72.016C75.3729 71.9893 75.5596 71.9547 75.7623 71.912V72.992C75.5489 73.0453 75.3303 73.0853 75.1063 73.112C74.8823 73.1387 74.6556 73.152 74.4262 73.152ZM69.9943 65.376V64.32H75.6343V65.376H69.9943ZM81.0049 73V64.32H82.0849L82.1729 65.304H82.2609C82.5915 64.9307 82.9702 64.6507 83.3969 64.464C83.8289 64.2773 84.2875 64.184 84.7729 64.184C85.2529 64.184 85.6822 64.2827 86.0609 64.48C86.4395 64.6773 86.7382 65 86.9569 65.448C87.1755 65.8907 87.2849 66.4853 87.2849 67.232V73H86.0209V67.312C86.0209 66.5653 85.8742 66.048 85.5809 65.76C85.2875 65.472 84.9009 65.328 84.4209 65.328C84.1809 65.328 83.9302 65.368 83.6689 65.448C83.4129 65.528 83.1649 65.656 82.9249 65.832C82.6849 66.0027 82.4715 66.232 82.2849 66.52V73H81.0049ZM90.9649 73V67.312C90.9649 66.5653 90.8102 66.048 90.5009 65.76C90.1969 65.472 89.8049 65.328 89.3249 65.328C89.0795 65.328 88.8182 65.3707 88.5409 65.456C88.2689 65.536 88.0022 65.6773 87.7409 65.88C87.4849 66.0773 87.2609 66.3493 87.0689 66.696L86.7489 65.664C87.1702 65.1147 87.6369 64.7307 88.1489 64.512C88.6609 64.2933 89.1542 64.184 89.6289 64.184C90.1302 64.184 90.5782 64.2853 90.9729 64.488C91.3675 64.6853 91.6769 65.008 91.9009 65.456C92.1302 65.904 92.2449 66.504 92.2449 67.256V73H90.9649ZM97.8074 73.152C97.0607 73.152 96.41 72.9973 95.8554 72.688C95.3007 72.3733 94.8714 71.888 94.5674 71.232C94.2634 70.5707 94.1114 69.7147 94.1114 68.664C94.1114 67.624 94.2607 66.7733 94.5594 66.112C94.8634 65.4507 95.2927 64.9653 95.8474 64.656C96.402 64.3413 97.0554 64.184 97.8074 64.184C98.5594 64.184 99.2127 64.3413 99.7674 64.656C100.322 64.9653 100.749 65.4507 101.047 66.112C101.351 66.768 101.503 67.6187 101.503 68.664C101.503 69.704 101.349 70.5547 101.039 71.216C100.735 71.8773 100.306 72.3653 99.7514 72.68C99.202 72.9947 98.554 73.152 97.8074 73.152ZM97.8074 72.112C98.298 72.112 98.722 72.0053 99.0794 71.792C99.4367 71.5787 99.7114 71.224 99.9034 70.728C100.101 70.2267 100.199 69.5467 100.199 68.688C100.199 67.8133 100.101 67.1253 99.9034 66.624C99.7114 66.1173 99.434 65.76 99.0714 65.552C98.714 65.3387 98.2927 65.232 97.8074 65.232C97.3167 65.232 96.8927 65.3387 96.5354 65.552C96.178 65.76 95.9007 66.1147 95.7034 66.616C95.5114 67.112 95.4154 67.7893 95.4154 68.648C95.4154 69.5173 95.5114 70.2053 95.7034 70.712C95.9007 71.2133 96.178 71.5733 96.5354 71.792C96.8927 72.0053 97.3167 72.112 97.8074 72.112ZM103.458 73V64.32H104.538L104.626 65.296H104.714C105.066 64.9387 105.477 64.664 105.946 64.472C106.415 64.28 106.914 64.184 107.442 64.184C107.986 64.184 108.466 64.2853 108.882 64.488C109.303 64.6853 109.631 65.0107 109.866 65.464C110.106 65.912 110.226 66.512 110.226 67.264V73H108.954V67.32C108.954 66.5733 108.789 66.056 108.458 65.768C108.133 65.4747 107.69 65.328 107.13 65.328C106.874 65.328 106.602 65.3653 106.314 65.44C106.026 65.5147 105.743 65.6373 105.466 65.808C105.194 65.9787 104.951 66.2053 104.738 66.488V73H103.458ZM115.864 73.152C114.978 73.152 114.29 72.9253 113.8 72.472C113.309 72.0133 113.064 71.2827 113.064 70.28V64.32L113.272 61.16H114.344V70.072C114.344 70.8027 114.493 71.3147 114.792 71.608C115.096 71.9013 115.546 72.048 116.144 72.048C116.304 72.048 116.469 72.0373 116.64 72.016C116.81 71.9893 116.997 71.9547 117.2 71.912V72.992C116.986 73.0453 116.768 73.0853 116.544 73.112C116.32 73.1387 116.093 73.152 115.864 73.152ZM111.432 65.376V64.32H117.072V65.376H111.432ZM118.567 73V60.072H119.847V65.288H119.919C120.271 64.92 120.677 64.6453 121.135 64.464C121.594 64.2773 122.082 64.184 122.599 64.184C123.127 64.184 123.597 64.2853 124.007 64.488C124.423 64.6853 124.749 65.008 124.983 65.456C125.218 65.904 125.335 66.504 125.335 67.256V73H124.063V67.312C124.063 66.5653 123.895 66.0507 123.559 65.768C123.229 65.48 122.789 65.336 122.239 65.336C121.973 65.336 121.695 65.376 121.407 65.456C121.119 65.5307 120.839 65.6533 120.567 65.824C120.295 65.9893 120.055 66.2107 119.847 66.488V73H118.567Z" fill="#BDBDBD"/>
<path fill-rule="evenodd" clip-rule="evenodd" d="M308.75 53.3333C308.75 54.7482 307.845 55.9528 306.583 56.3992L306.583 57.6667C306.583 57.954 306.469 58.2295 306.266 58.4327C306.063 58.6359 305.787 58.75 305.5 58.75C305.213 58.75 304.937 58.6359 304.734 58.4327C304.531 58.2295 304.417 57.954 304.417 57.6667L304.417 56.3992C303.782 56.1753 303.233 55.7603 302.845 55.2112C302.456 54.6621 302.247 54.006 302.247 53.3333C302.247 52.6607 302.456 52.0046 302.845 51.4555C303.233 50.9064 303.782 50.4913 304.417 50.2675L304.417 40.3333C304.417 40.046 304.531 39.7705 304.734 39.5673C304.937 39.3641 305.213 39.25 305.5 39.25C305.787 39.25 306.063 39.3641 306.266 39.5673C306.469 39.7705 306.583 40.046 306.583 40.3333L306.583 50.2675C307.217 50.4918 307.766 50.907 308.154 51.4561C308.542 52.0051 308.75 52.661 308.75 53.3333ZM306.583 53.3333C306.583 53.046 306.469 52.7705 306.266 52.5673C306.063 52.3641 305.787 52.25 305.5 52.25C305.213 52.25 304.937 52.3641 304.734 52.5673C304.531 52.7705 304.417 53.046 304.417 53.3333C304.417 53.6207 304.531 53.8962 304.734 54.0994C304.937 54.3025 305.213 54.4167 305.5 54.4167C305.787 54.4167 306.063 54.3025 306.266 54.0994C306.469 53.8962 306.583 53.6207 306.583 53.3333ZM315.25 44.6667C315.25 45.3047 315.062 45.9287 314.71 46.4608C314.358 46.9929 313.857 47.4096 313.27 47.6588L313.083 47.7314L313.083 57.6667C313.083 57.9428 312.977 58.2084 312.788 58.4091C312.598 58.6099 312.339 58.7308 312.063 58.7469C311.788 58.7631 311.516 58.6734 311.305 58.4962C311.093 58.319 310.957 58.0676 310.924 57.7934L310.917 57.6667L310.917 47.7325C310.299 47.5141 309.761 47.1141 309.375 46.585C308.988 46.0558 308.771 45.4222 308.751 44.7673C308.731 44.1123 308.909 43.4665 309.262 42.9146C309.615 42.3627 310.127 41.9305 310.73 41.6745L310.917 41.6008L310.917 40.3333C310.917 40.0572 311.023 39.7916 311.212 39.5909C311.402 39.3901 311.661 39.2692 311.937 39.2531C312.212 39.2369 312.484 39.3266 312.695 39.5038C312.907 39.681 313.043 39.9324 313.076 40.2066L313.083 40.3333L313.083 41.6008C313.717 41.8251 314.266 42.2403 314.654 42.7894C315.042 43.3385 315.25 43.9943 315.25 44.6667ZM313.083 44.6667C313.083 44.3793 312.969 44.1038 312.766 43.9006C312.563 43.6975 312.287 43.5833 312 43.5833C311.713 43.5833 311.437 43.6975 311.234 43.9006C311.031 44.1038 310.917 44.3793 310.917 44.6667C310.917 44.954 311.031 45.2295 311.234 45.4327C311.437 45.6359 311.713 45.75 312 45.75C312.287 45.75 312.563 45.6359 312.766 45.4327C312.969 45.2295 313.083 44.954 313.083 44.6667ZM321.75 53.3333C321.75 54.7482 320.845 55.9528 319.583 56.3992L319.583 57.6667C319.583 57.954 319.469 58.2295 319.266 58.4327C319.063 58.6359 318.787 58.75 318.5 58.75C318.213 58.75 317.937 58.6359 317.734 58.4327C317.531 58.2295 317.417 57.954 317.417 57.6667L317.417 56.3992C316.782 56.1753 316.233 55.7603 315.845 55.2112C315.456 54.6621 315.247 54.006 315.247 53.3333C315.247 52.6607 315.456 52.0046 315.845 51.4555C316.233 50.9064 316.782 50.4913 317.417 50.2675L317.417 40.3333C317.417 40.046 317.531 39.7705 317.734 39.5673C317.937 39.3641 318.213 39.25 318.5 39.25C318.787 39.25 319.063 39.3641 319.266 39.5673C319.469 39.7705 319.583 40.046 319.583 40.3333L319.583 50.2675C320.217 50.4918 320.766 50.907 321.154 51.4561C321.542 52.0051 321.75 52.661 321.75 53.3333ZM319.583 53.3333C319.583 53.046 319.469 52.7705 319.266 52.5673C319.063 52.3641 318.787 52.25 318.5 52.25C318.213 52.25 317.937 52.3641 317.734 52.5673C317.531 52.7705 317.417 53.046 317.417 53.3333C317.417 53.6207 317.531 53.8962 317.734 54.0994C317.937 54.3025 318.213 54.4167 318.5 54.4167C318.787 54.4167 319.063 54.3025 319.266 54.0994C319.469 53.8962 319.583 53.6207 319.583 53.3333Z" fill="#6F29B2"/>
<circle cx="50.5" cy="207" r="4.5" fill="#7A3AB8"/>
<path d="M70.2067 208.126C69.7573 208.126 69.2995 208.09 68.8333 208.019C68.3713 207.952 67.945 207.859 67.5544 207.742V205.795C67.8148 205.879 68.1004 205.95 68.4112 206.009C68.722 206.064 69.0286 206.108 69.331 206.141C69.6376 206.175 69.9148 206.192 70.1626 206.192C70.5742 206.192 70.8955 206.158 71.1265 206.091C71.3617 206.02 71.5276 205.919 71.6242 205.789C71.7208 205.658 71.7691 205.505 71.7691 205.329C71.7691 205.106 71.6893 204.93 71.5297 204.8C71.3743 204.665 71.0614 204.537 70.591 204.415L69.8224 204.22C68.995 204.014 68.3671 203.689 67.9387 203.243C67.5145 202.798 67.3024 202.212 67.3024 201.486C67.3024 200.562 67.6447 199.841 68.3293 199.325C69.0139 198.808 70.0597 198.55 71.4667 198.55C71.8741 198.55 72.2668 198.573 72.6448 198.619C73.027 198.665 73.3672 198.724 73.6654 198.796V200.742C73.3756 200.663 73.0459 200.6 72.6763 200.553C72.3067 200.507 71.9581 200.484 71.6305 200.484C71.1265 200.484 70.7338 200.522 70.4524 200.597C70.1752 200.673 69.9799 200.778 69.8665 200.912C69.7573 201.043 69.7027 201.19 69.7027 201.353C69.7027 201.559 69.7699 201.725 69.9043 201.851C70.0429 201.973 70.3117 202.088 70.7107 202.198L71.4856 202.393C72.0988 202.544 72.6028 202.744 72.9976 202.991C73.3966 203.235 73.6906 203.537 73.8796 203.899C74.0728 204.256 74.1694 204.678 74.1694 205.165C74.1694 205.774 74.0119 206.301 73.6969 206.746C73.3861 207.187 72.9346 207.527 72.3424 207.767C71.7544 208.006 71.0425 208.126 70.2067 208.126ZM69.6208 209.512V207.565L71.851 207.559V209.512H69.6208ZM69.6208 199.004V197.164H71.851V199.004H69.6208ZM84.632 215.2C83.911 215.2 83.2075 215.154 82.5215 215.063C81.8425 214.972 81.1985 214.839 80.5895 214.664V212.112C81.1845 212.28 81.8285 212.413 82.5215 212.511C83.2145 212.609 83.8725 212.658 84.4955 212.658C85.6155 212.658 86.431 212.473 86.942 212.102C87.453 211.731 87.7085 211.188 87.7085 210.474C87.7085 209.788 87.4635 209.263 86.9735 208.899C86.4905 208.528 85.6715 208.343 84.5165 208.343H82.238V205.76H84.002C85.122 205.76 85.9235 205.581 86.4065 205.224C86.8965 204.867 87.1415 204.367 87.1415 203.723C87.1415 203.093 86.9175 202.617 86.4695 202.295C86.0285 201.966 85.3285 201.801 84.3695 201.801C83.7885 201.801 83.19 201.85 82.574 201.948C81.965 202.046 81.3945 202.19 80.8625 202.379V199.827C81.1985 199.715 81.5835 199.617 82.0175 199.533C82.4515 199.442 82.903 199.376 83.372 199.334C83.841 199.285 84.296 199.26 84.737 199.26C86.62 199.26 88.034 199.624 88.979 200.352C89.931 201.073 90.407 202.095 90.407 203.418C90.407 204.356 90.1375 205.147 89.5985 205.791C89.0665 206.435 88.328 206.859 87.383 207.062L87.3935 206.894C88.5205 207.062 89.3885 207.468 89.9975 208.112C90.6065 208.749 90.911 209.606 90.911 210.684C90.911 211.622 90.68 212.431 90.218 213.11C89.763 213.782 89.07 214.3 88.139 214.664C87.208 215.021 86.039 215.2 84.632 215.2ZM94.5003 215.179C93.8423 215.179 93.3138 214.997 92.9148 214.632C92.5228 214.268 92.3268 213.775 92.3268 213.152C92.3268 212.522 92.5193 212.025 92.9043 211.661C93.2963 211.297 93.8283 211.115 94.5003 211.115C95.1723 211.115 95.7008 211.3 96.0858 211.671C96.4778 212.043 96.6738 212.536 96.6738 213.152C96.6738 213.761 96.4743 214.251 96.0753 214.622C95.6833 214.993 95.1583 215.179 94.5003 215.179ZM102.45 215.2C101.729 215.2 101.025 215.147 100.339 215.042C99.6531 214.944 99.0091 214.804 98.4071 214.622V212.07C98.9951 212.238 99.6356 212.375 100.329 212.48C101.022 212.578 101.683 212.627 102.313 212.627C103.426 212.627 104.235 212.441 104.739 212.07C105.243 211.699 105.495 211.157 105.495 210.443C105.495 209.96 105.365 209.557 105.106 209.235C104.847 208.913 104.382 208.661 103.71 208.479C103.045 208.29 102.096 208.157 100.864 208.08L98.8901 207.975L99.4256 199.46H108.088V202.085H101.074L102.565 200.615L102.156 206.673L100.161 205.466L102.124 205.581C103.699 205.665 104.97 205.896 105.936 206.274C106.902 206.652 107.605 207.181 108.046 207.86C108.494 208.539 108.718 209.372 108.718 210.359C108.718 211.934 108.19 213.134 107.133 213.96C106.076 214.786 104.515 215.2 102.45 215.2ZM119.949 215L114.531 207.083L119.624 199.46H123.215L117.87 207.461L117.923 206.579L123.666 215H119.949ZM110.615 215V199.46H114.027V215H110.615ZM113.555 208.553V205.55H115.875V208.553H113.555Z" fill="#905BC4"/>
<defs>
<filter id="filter0_d_4022_256" x="0.428955" y="86.2502" width="340.756" height="79.3665" filterUnits="userSpaceOnUse" color-interpolation-filters="sRGB">
<feFlood flood-opacity="0" result="BackgroundImageFix"/>
<feColorMatrix in="SourceAlpha" type="matrix" values="0 0 0 0 0 0 0 0 0 0 0 0 0 0 0 0 0 0 127 0" result="hardAlpha"/>
<feOffset dx="-2" dy="8"/>
<feGaussianBlur stdDeviation="2"/>
<feComposite in2="hardAlpha" operator="out"/>
<feColorMatrix type="matrix" values="0 0 0 0 0 0 0 0 0 0 0 0 0 0 0 0 0 0 0.25 0"/>
<feBlend mode="normal" in2="BackgroundImageFix" result="effect1_dropShadow_4022_256"/>
<feBlend mode="normal" in="SourceGraphic" in2="effect1_dropShadow_4022_256" result="shape"/>
</filter>
<linearGradient id="paint0_linear_4022_256" x1="25.5" y1="12" x2="304.5" y2="250" gradientUnits="userSpaceOnUse">
<stop offset="0.304" stop-color="#FBFAFC"/>
<stop offset="1" stop-color="#D7C1EF"/>
</linearGradient>
</defs>
</svg>
