<svg width="32" height="32" viewBox="0 0 32 32" fill="none" xmlns="http://www.w3.org/2000/svg">
<path d="M16 2.66666C23.364 2.66666 29.3333 8.63599 29.3333 16C29.3333 23.364 23.364 29.3333 16 29.3333C8.63596 29.3333 2.66663 23.364 2.66663 16C2.66663 8.63599 8.63596 2.66666 16 2.66666ZM16 5.33332C13.171 5.33332 10.4579 6.45713 8.45749 8.45752C6.4571 10.4579 5.33329 13.171 5.33329 16C5.33329 18.829 6.4571 21.5421 8.45749 23.5425C10.4579 25.5428 13.171 26.6667 16 26.6667C18.8289 26.6667 21.542 25.5428 23.5424 23.5425C25.5428 21.5421 26.6666 18.829 26.6666 16C26.6666 13.171 25.5428 10.4579 23.5424 8.45752C21.542 6.45713 18.8289 5.33332 16 5.33332ZM16 7.99999C16.3265 8.00003 16.6417 8.11993 16.8858 8.33694C17.1298 8.55396 17.2857 8.85299 17.324 9.17732L17.3333 9.33332V15.448L20.9426 19.0573C21.1818 19.2973 21.3206 19.6192 21.3309 19.9578C21.3413 20.2964 21.2223 20.6263 20.9983 20.8804C20.7742 21.1344 20.4619 21.2937 20.1247 21.3259C19.7874 21.358 19.4506 21.2605 19.1826 21.0533L19.0573 20.9427L15.0573 16.9427C14.8501 16.7353 14.717 16.4653 14.6786 16.1747L14.6666 16V9.33332C14.6666 8.9797 14.8071 8.64056 15.0571 8.39051C15.3072 8.14047 15.6463 7.99999 16 7.99999Z" fill="#3D2E87"/>
</svg>
